<?xml version="1.0" standalone="no"?>
<!DOCTYPE svg PUBLIC "-//W3C//DTD SVG 20010904//EN"
 "http://www.w3.org/TR/2001/REC-SVG-20010904/DTD/svg10.dtd">
<svg version="1.0" xmlns="http://www.w3.org/2000/svg"
 width="565.000000pt" height="565.000000pt" viewBox="0 0 565.000000 565.000000"
 preserveAspectRatio="xMidYMid meet">
<metadata>
Created by potrace 1.11, written by Peter Selinger 2001-2013
</metadata>
<g transform="translate(0.000000,565.000000) scale(0.100000,-0.100000)"
fill="#000000" stroke="none">
<path d="M2489 5646 c-2 -2 -54 -11 -114 -20 -287 -42 -623 -152 -879 -289
-257 -137 -460 -289 -677 -506 -438 -439 -692 -934 -795 -1550 -21 -131 -24
-175 -24 -439 0 -268 2 -305 25 -440 31 -180 54 -277 95 -407 280 -875 955
-1556 1825 -1838 286 -93 526 -130 855 -131 229 -1 320 7 510 40 956 169 1770
838 2125 1747 135 347 190 645 189 1037 -1 314 -36 554 -120 821 -288 910
-982 1596 -1895 1873 -102 30 -178 47 -450 96 -51 9 -661 15 -670 6z m270
-313 c6 -60 14 -133 17 -164 l6 -55 -207 -23 c-114 -13 -209 -21 -211 -18 -3
2 -13 77 -22 166 l-18 161 28 0 c15 0 28 -1 28 -2 0 -2 7 -59 15 -128 8 -69
15 -128 15 -132 0 -10 101 -10 117 0 8 5 8 35 -2 122 -20 163 -20 160 13 160
l28 0 13 -132 c7 -73 15 -136 16 -139 5 -7 112 5 120 13 6 6 -6 141 -21 241
-6 36 -5 37 24 37 l29 0 12 -107z m317 68 c-3 -14 -8 -53 -12 -86 l-6 -60 79
78 c75 73 101 87 130 69 9 -6 -10 -30 -62 -80 l-75 -72 66 -92 c37 -50 59 -88
49 -85 -9 4 -27 7 -39 7 -16 0 -37 22 -82 85 -32 47 -62 85 -65 85 -4 0 -10
-34 -14 -76 l-7 -76 -26 7 c-15 4 -28 8 -29 9 -2 1 6 72 17 157 11 85 20 157
20 160 0 3 14 4 31 1 26 -4 29 -8 25 -31z m618 -292 c14 -96 23 -175 22 -177
-2 -1 -15 3 -30 9 -17 8 -26 20 -26 34 0 30 -12 38 -93 65 l-68 22 -22 -20
c-17 -15 -28 -18 -44 -11 -24 9 -30 25 -14 31 6 2 62 54 126 117 64 62 118
111 120 109 3 -3 16 -83 29 -179z m-1608 34 l118 -112 -28 -11 c-25 -9 -32 -8
-51 10 l-22 20 -76 -27 c-72 -25 -77 -29 -77 -55 0 -22 -6 -31 -26 -39 -15 -5
-29 -8 -31 -5 -2 2 6 83 18 179 21 159 24 175 39 164 9 -7 70 -62 136 -124z
m-412 -161 c63 -100 75 -126 65 -138 -21 -25 -36 -15 -80 53 l-44 66 -7 -34
c-4 -19 -10 -55 -15 -80 l-8 -47 -70 24 c-38 13 -73 23 -77 21 -4 -1 13 -33
37 -71 41 -64 43 -70 27 -82 -9 -7 -21 -13 -27 -13 -9 0 -177 261 -171 266 1
1 53 -14 115 -33 84 -27 116 -33 121 -24 4 7 13 53 19 104 15 108 20 131 30
120 5 -5 43 -64 85 -132z m2724 -82 c45 -35 82 -66 82 -70 0 -4 -7 -13 -15
-20 -13 -11 -25 -5 -76 34 -33 26 -66 49 -73 52 -6 2 -22 -9 -34 -25 l-21 -29
47 -38 c78 -63 87 -86 57 -144 -30 -59 -96 -79 -135 -40 -11 11 -21 19 -23 18
-5 -4 -107 75 -107 83 0 4 19 31 43 61 23 29 67 86 96 126 36 48 57 70 65 64
6 -5 48 -37 94 -72z m-3213 -199 c90 -51 109 -177 39 -260 -70 -84 -229 -60
-278 42 -71 150 93 300 239 218z m3549 -109 c126 -74 97 -274 -45 -310 -98
-25 -190 32 -213 130 -17 72 44 175 117 197 41 13 103 5 141 -17z m-3903 -303
c76 -48 114 -68 121 -61 9 9 41 -6 97 -45 2 -2 -2 -14 -9 -28 -13 -23 -15 -24
-36 -10 -13 8 -25 15 -28 15 -7 0 -116 -176 -116 -188 0 -6 9 -14 20 -17 24
-7 25 -15 6 -40 -13 -18 -15 -18 -59 8 -34 20 -44 31 -40 46 8 33 -14 58 -112
122 -53 34 -94 65 -93 68 12 28 125 200 130 201 4 0 58 -32 119 -71z m4226
-144 c57 -97 60 -106 43 -115 -26 -14 -26 -14 -49 25 -11 19 -25 35 -30 35 -5
0 -60 -30 -121 -66 -105 -62 -112 -65 -125 -47 -8 10 -15 21 -15 25 0 3 52 36
115 73 63 37 115 72 115 78 0 7 -9 25 -20 42 -19 29 -13 55 14 55 6 0 39 -47
73 -105z m-1167 -517 l0 -193 -307 3 c-436 5 -773 -6 -773 -25 0 -7 9 -42 19
-76 11 -34 37 -117 58 -184 l38 -122 395 -3 c429 -4 447 -6 570 -65 74 -36
207 -169 242 -243 106 -223 87 -438 -54 -625 -89 -117 -203 -187 -353 -218
-32 -7 -460 -12 -1177 -14 l-1128 -3 0 190 0 190 95 0 94 0 21 73 c12 39 33
110 47 157 13 47 34 117 45 155 11 39 27 90 35 115 8 25 21 68 28 95 8 28 34
118 59 200 24 83 60 204 80 269 19 65 33 123 30 127 -3 5 -48 9 -100 9 l-94 0
0 190 0 190 1065 0 1065 0 0 -192z m-3354 -700 c51 -24 63 -111 22 -155 -45
-49 -107 -52 -152 -7 -42 43 -42 106 1 148 36 36 76 40 129 14z m4605 -15 c35
-32 43 -76 24 -118 -47 -98 -198 -65 -198 44 0 95 105 140 174 74z m-4351
-1072 c10 -25 8 -42 -14 -115 -15 -48 -29 -93 -33 -102 -3 -10 18 -2 62 22 65
36 68 37 82 19 7 -11 12 -23 10 -28 -1 -5 -66 -44 -142 -87 -138 -77 -140 -78
-152 -57 -7 12 -12 24 -13 27 0 3 32 23 71 44 39 21 67 42 62 46 -4 4 -49 13
-100 20 -50 7 -95 15 -101 19 -8 6 -32 45 -32 54 0 2 46 -4 103 -14 56 -9 105
-14 108 -11 4 4 19 49 34 100 16 50 31 92 35 92 4 0 13 -13 20 -29z m4284
-159 c1 2 11 20 21 40 16 30 24 37 40 32 11 -4 21 -7 22 -9 5 -3 -107 -214
-116 -219 -4 -3 -16 0 -25 7 -15 11 -15 15 5 51 11 21 17 42 12 47 -4 4 -57
33 -118 65 -60 31 -111 58 -113 59 -1 1 3 14 9 29 l12 26 125 -66 c68 -36 125
-64 126 -62z m-279 -238 c66 -53 122 -98 124 -100 4 -4 -71 -106 -100 -135
-49 -49 -144 2 -130 69 2 11 -2 11 -19 2 -68 -36 -146 52 -108 123 15 30 99
137 107 137 3 0 60 -43 126 -96z m-3765 7 c5 -11 10 -22 10 -24 0 -2 -32 -31
-70 -65 -39 -33 -67 -63 -63 -65 5 -2 60 -10 123 -17 184 -21 180 -12 61 -116
-144 -125 -138 -121 -162 -98 -19 19 -18 20 56 83 42 35 73 66 70 70 -4 3 -67
13 -142 21 -75 8 -136 19 -135 24 0 9 223 205 234 206 4 0 12 -9 18 -19z
m3443 -311 c52 -31 80 -90 75 -156 -8 -89 -62 -144 -150 -152 -71 -6 -119 15
-153 66 -35 53 -42 102 -21 156 39 103 153 142 249 86z m-3109 -35 c19 -14 18
-16 -10 -55 -47 -66 -49 -69 -44 -73 3 -2 33 -25 67 -51 l62 -47 38 51 c39 53
53 59 73 35 14 -17 17 -12 -92 -157 -89 -118 -89 -118 -113 -102 l-25 16 45
58 c50 66 53 58 -41 125 -55 40 -43 44 -111 -40 -31 -39 -31 -39 -51 -21 -21
18 -20 19 66 134 122 164 106 149 136 127z m2659 -227 c9 -18 42 -80 72 -137
31 -57 54 -110 51 -116 -2 -7 -13 -14 -23 -17 -15 -4 -28 11 -63 78 -25 46
-48 84 -51 84 -4 0 -29 -63 -56 -141 l-49 -140 -78 146 c-42 81 -76 148 -74
150 2 1 13 7 25 14 21 11 25 7 54 -51 47 -93 61 -112 70 -96 12 22 89 235 89
247 0 21 15 11 33 -21z m-2158 -85 c41 -21 75 -42 75 -48 0 -9 -126 -275 -135
-284 -2 -2 -42 15 -89 38 -66 32 -86 47 -94 69 -14 40 9 90 46 104 28 11 29
12 14 38 -30 52 11 120 73 120 20 0 67 -16 110 -37z m376 -138 l106 -27 -40
-157 c-22 -86 -41 -157 -42 -159 -1 -1 -36 6 -76 17 -41 11 -93 25 -117 31
-38 10 -42 14 -36 33 3 12 7 23 8 24 0 1 41 -9 89 -22 97 -26 98 -26 101 36 1
32 0 33 -71 52 -71 19 -81 28 -65 54 6 10 24 8 81 -7 41 -12 75 -19 76 -18 4
6 25 71 25 79 0 5 -5 9 -12 9 -6 0 -46 9 -88 21 -73 19 -77 22 -72 45 2 14 10
23 16 21 6 -2 59 -17 117 -32z m1079 18 c0 -10 3 -35 6 -55 5 -30 3 -38 -9
-38 -8 0 -18 -7 -21 -16 -10 -25 -6 -113 8 -191 15 -85 28 -74 -123 -98 -75
-11 -106 -13 -111 -5 -4 6 -15 67 -25 136 -12 85 -22 124 -31 124 -13 0 -18
13 -29 73 -4 29 -3 37 9 37 8 0 21 3 30 6 13 5 16 -1 16 -25 0 -17 3 -31 8
-31 4 0 56 7 115 16 108 17 108 17 102 42 -7 27 7 42 38 42 10 0 17 -7 17 -17z
m-743 -83 c13 0 15 -11 11 -64 l-6 -64 30 -6 c17 -3 57 -6 89 -6 l59 0 0 65 0
65 31 0 31 0 -6 -107 c-4 -60 -9 -134 -12 -165 -6 -55 -7 -58 -33 -58 l-26 0
3 75 4 75 -55 0 c-30 0 -68 3 -84 6 l-30 6 -8 -76 c-5 -61 -10 -76 -23 -76
-36 0 -38 11 -28 178 7 135 11 162 23 158 8 -4 22 -6 30 -6z m1553 -71 c0 -10
-13 -12 -48 -9 -25 2 -62 -25 -62 -45 0 -7 -7 -15 -15 -19 -11 -4 -15 2 -15
23 0 30 32 66 65 73 24 5 75 -11 75 -23z"/>
<path d="M3610 5166 c-8 -6 -26 -24 -39 -38 l-24 -27 24 -9 c69 -26 69 -26 68
15 -1 55 -10 75 -29 59z"/>
<path d="M1967 5113 c-3 -31 -5 -59 -3 -60 2 -2 25 6 51 17 26 11 46 22 44 23
-2 1 -23 19 -45 40 l-41 38 -6 -58z"/>
<path d="M4197 4761 l-27 -39 42 -31 c47 -35 69 -38 92 -15 26 26 18 51 -28
88 -23 20 -45 36 -47 36 -2 0 -16 -18 -32 -39z"/>
<path d="M1021 4644 c-83 -69 -22 -204 92 -204 29 0 46 7 68 29 28 28 34 48
29 101 -7 86 -121 131 -189 74z"/>
<path d="M4588 4544 c-73 -39 -78 -156 -8 -197 82 -49 180 10 180 109 0 52
-53 104 -106 104 -22 -1 -51 -7 -66 -16z"/>
<path d="M687 4233 l-35 -57 80 -55 c44 -30 82 -60 85 -68 3 -7 9 -13 13 -13
7 0 80 112 80 124 0 5 -86 64 -152 104 l-36 22 -35 -57z"/>
<path d="M2347 3433 c-3 -5 -30 -96 -61 -203 -31 -107 -61 -206 -65 -220 -5
-14 -17 -52 -26 -85 -28 -99 -57 -197 -72 -245 -8 -25 -21 -67 -28 -95 -7 -27
-32 -112 -54 -188 -23 -76 -41 -142 -41 -147 0 -6 144 -10 390 -10 215 0 390
3 390 8 0 4 -11 41 -24 82 -21 66 -69 220 -111 360 -7 25 -38 124 -68 220 -50
158 -112 358 -139 450 -22 75 -26 80 -57 80 -16 0 -32 -3 -34 -7z"/>
<path d="M3048 2645 c-3 -3 9 -51 27 -108 18 -56 45 -143 61 -193 l28 -91 164
-7 c278 -10 321 -8 372 17 29 15 57 41 78 71 28 42 32 57 32 111 0 82 -28 138
-89 177 l-45 28 -311 0 c-172 0 -314 -2 -317 -5z"/>
<path d="M4641 1431 c-39 -49 -41 -87 -5 -103 25 -12 29 -10 65 31 22 24 39
47 39 51 0 4 -15 19 -34 34 l-34 26 -31 -39z"/>
<path d="M4758 1348 c-38 -51 -40 -56 -28 -78 18 -34 61 -26 92 19 26 36 26
39 10 53 -49 40 -48 40 -74 6z"/>
<path d="M4321 1096 c-74 -41 -65 -169 14 -202 46 -19 74 -18 111 5 94 57 44
212 -68 211 -18 -1 -44 -7 -57 -14z"/>
<path d="M1740 762 c-39 -32 -16 -60 91 -110 7 -3 44 76 38 82 -9 8 -89 46
-97 46 -6 0 -20 -8 -32 -18z"/>
<path d="M1698 639 c-29 -16 -23 -66 10 -82 61 -32 70 -31 87 9 8 20 14 38 13
39 -5 4 -87 45 -90 45 -2 0 -11 -5 -20 -11z"/>
<path d="M3158 555 c-36 -5 -69 -12 -71 -15 -3 -3 3 -52 12 -110 l16 -105 45
2 c85 4 93 9 85 51 -4 20 -9 70 -11 111 -2 40 -4 74 -6 75 -2 1 -33 -3 -70 -9z"/>
</g>
</svg>
